<?xml version="1.0" encoding="utf-8"?>
<!-- Generator: Adobe Illustrator 23.0.1, SVG Export Plug-In . SVG Version: 6.00 Build 0)  -->
<svg version="1.1" id="Layer_1" xmlns="http://www.w3.org/2000/svg" xmlns:xlink="http://www.w3.org/1999/xlink" x="0px" y="0px"
	 viewBox="0 0 70 70" style="enable-background:new 0 0 70 70;" xml:space="preserve">
<g>
	<path d="M68.86,65.74c-1.03,1.21-1.89,2.22-2.82,3.3c-5.38-5.39-10.5-10.54-15.74-15.8c-0.83,0.61-1.52,1.12-2.22,1.63
		C30.06,67.93,4.11,56.65,1.37,34.55C-0.58,18.75,9.88,4.31,25.36,1.46c16.21-2.99,31.73,7.76,34.67,24.18
		c1.5,8.39-0.41,16.1-5.56,22.91c-0.97,1.28-0.86,1.94,0.23,3c4.34,4.21,8.58,8.52,12.86,12.8C68.01,64.8,68.43,65.28,68.86,65.74z
		 M55.98,30.61C55.91,16.93,44.6,5.42,31.01,5.5C16.61,5.58,5.54,16.72,5.62,30.88c0.07,13.98,11.1,24.88,25.22,25.01
		C44.6,56.02,56.05,44.39,55.98,30.61z"/>
	<path d="M43.55,37.45c-0.04,1.62-0.42,3.73-2.69,4.85c-1.92,0.94-4.4,0.57-5.9-0.8c-1.55-1.42-2.11-5.86-1.05-8.28
		c0.76-1.74,2.66-2.74,4.94-2.6C41.94,30.81,43.54,32.92,43.55,37.45z M37.07,36.64c0.05,0.74-0.04,1.49,0.18,2.13
		c0.16,0.46,0.7,1.01,1.13,1.07c0.34,0.05,1.08-0.57,1.11-0.94c0.12-1.49,0.11-3.01-0.01-4.51c-0.03-0.38-0.71-1.04-0.96-0.99
		c-0.47,0.11-1.07,0.56-1.22,1.01C37.05,35.11,37.13,35.92,37.07,36.64z"/>
	<path d="M18.11,24.56c0-4.66,3.01-7.1,6.92-5.62c1.62,0.61,2.69,1.74,2.94,3.42c0.2,1.31,0.26,2.69,0.06,3.99
		c-0.48,3.15-2.37,4.6-5.48,4.43c-2.53-0.14-4.32-2.21-4.45-5.15C18.09,25.26,18.11,24.91,18.11,24.56z M24.43,24.86
		c-0.05-0.87,0.04-1.55-0.17-2.13c-0.19-0.53-0.72-0.94-1.1-1.4c-0.42,0.4-1.17,0.77-1.21,1.21c-0.16,1.42-0.14,2.88,0,4.31
		c0.04,0.41,0.7,1.03,1.11,1.06c0.36,0.02,0.94-0.59,1.1-1.04C24.39,26.17,24.36,25.38,24.43,24.86z"/>
	<path d="M23.15,42.54c0.84-1.74,1.58-3.31,2.37-4.87c2.82-5.6,5.64-11.2,8.47-16.79c1.28-2.54,1.29-2.54,4.48-2.08
		c-0.39,0.83-0.73,1.6-1.11,2.35c-3.25,6.49-6.51,12.99-9.77,19.48C26.38,43.04,26.37,43.04,23.15,42.54z"/>
</g>
</svg>
