<svg id="Layer_1" data-name="Layer 1" xmlns="http://www.w3.org/2000/svg" width="50" height="50" viewBox="0 0 50 50">
  <defs>
    <style>
      .cls-1 {
        fill: #fff;
      }
    </style>
  </defs>
  <title>finance</title>
  <g>
    <path class="cls-1" d="M20.6,40.5A19.8,19.8,0,1,1,40.4,20.7,19.8,19.8,0,0,1,20.6,40.5Zm0-37.6A17.8,17.8,0,1,0,38.4,20.7,17.8,17.8,0,0,0,20.6,2.9Z"/>
    <path class="cls-1" d="M48.2,49.1a1.1,1.1,0,0,1-.8-.3l-14-14.4a1.2,1.2,0,0,1,.1-1.5,1.1,1.1,0,0,1,1.4.1l14,14.4a1,1,0,0,1,0,1.4A1.1,1.1,0,0,1,48.2,49.1Z"/>
  </g>
  <path class="cls-1" d="M19.7,16.2c0,3.9-2,5.8-4.4,5.8s-4.3-1.8-4.4-5.5,2.1-5.8,4.5-5.8S19.7,12.7,19.7,16.2Zm-6.8.2c0,2.3.9,4.1,2.4,4.1s2.4-1.7,2.4-4.2-.6-4.1-2.4-4.1S12.9,14,12.9,16.4Zm2.2,13.4L26,10.7h1.6L16.7,29.8Zm16.7-5.9c0,3.9-2.1,5.8-4.5,5.8S23,27.8,23,24.1s2-5.8,4.5-5.8S31.8,20.3,31.8,23.9ZM25,24c0,2.4.9,4.2,2.4,4.2s2.4-1.8,2.4-4.2-.7-4.2-2.4-4.2S25,21.7,25,24Z"/>
</svg>
