<svg id="Layer_1" data-name="Layer 1" xmlns="http://www.w3.org/2000/svg" width="110" height="110" viewBox="0 0 110 110">
  <defs>
    <style>
      .cls-1 {
        fill: #010101;
      }

      .cls-2 {
        fill: #fefefe;
      }
    </style>
  </defs>
  <title>no commitment-01</title>
  <g>
    <path class="cls-1" d="M109.1,54.9A54.1,54.1,0,1,1,.9,53.9C1.5,25.4,24.7.8,55.1.9A54,54,0,0,1,109.1,54.9ZM72.8,68.3h0c.5.3.6.8.8,1.3s.6,2.9-.6,4.2-2.7,1.1-4.2.5a13.1,13.1,0,0,1-2.1-1,11.3,11.3,0,0,1,.4,1.5,2.8,2.8,0,0,1-2.7,3.5,4.8,4.8,0,0,1-3.1-1h0c-.4.4-.1.8,0,1.2.2,2.5-1.5,3.9-3.9,3.2l-1.2-.5A1.6,1.6,0,0,1,55.1,79a3.6,3.6,0,0,0-3-4.5c-1.3-.1-1.7-.6-1.5-1.7a4.3,4.3,0,0,0-.1-.5,3.7,3.7,0,0,0-3-2.9c-1.3-.4-2.1.5-2.8,1.4h0c.3.2.5-.1.8-.1,2.3-.7,4,.6,3.9,3a20,20,0,0,1-.4,2.4l1.4-.4c2.3-.6,3.9.9,3.5,3.2A5.3,5.3,0,0,1,50,83.2a2.9,2.9,0,0,1-3.8-2.8,2.5,2.5,0,0,0-.1-1.2,4.1,4.1,0,0,1-4-.4c-1.3-1.1-1.3-2.5-1-4a2,2,0,0,0-1.2.7L25.7,89.8c-.6.5-.4.7.1,1.2,9.4,7.3,20,10.9,31.9,10.2a45.1,45.1,0,0,0,33-16.8,45.4,45.4,0,0,0,10.2-22.9c.1-.8.1-1.2-1-1l-7.4,1.3c-.6.1-1.1.2-1.4-.7C88.5,53.5,86,46,83.3,38.4c-.2-.8-.1-1.1.6-1.3l10.5-4.4c.8-.3.9-.5.5-1.2s-2.5-3.8-3.8-5.6-.8-.7-1.4,0c-4.3,4.3-8.6,8.6-12.8,13-.5.4-1.3.8-1.1,1.4s1.2.7,1.9.8h.8a10.7,10.7,0,0,0,3.2-.8c.7-.2.8,0,1,.5l6.4,18.7c.2.6.1.9-.5,1.1l-6.3,1.9a4.2,4.2,0,0,1-5-1.4L67.1,50c-.3-.3-.5-1.1-1.2-.4s0,.9.3,1.1L76.2,62a7.3,7.3,0,0,1,1.7,2.8c.5,1.2.6,2.4-.5,3.3a2.9,2.9,0,0,1-3.5.4C73.5,68.4,73.2,68,72.8,68.3ZM49.7,54.6h-.4c-3.4-.3-5.1-3.1-3.6-6.2s1.9-3.6,2.9-5.4a4.3,4.3,0,0,1,2-2l8.7-4.5c2.7-1.5,5.5-1.9,8.3-.5a.9.9,0,0,0,1.1-.1L84.4,20.1c.4-.4.5-.6,0-1a22.7,22.7,0,0,1-2.5-1.8c-10-6.9-21-10-33.1-8.2C33.6,11.4,22.2,19.2,14.5,32.5c-.4.8-.3,1,.4,1.3l11.2,4.6c.6.3.9.4.6,1.1L18.9,62.4c-.2.7-.6.8-1.2.7l-7.5-1.2c-.8-.2-1-.1-.9.8A47,47,0,0,0,19,84.1c.5.6.7.5,1.1.1L33,71.2a.4.4,0,0,0,.3-.6c-2.7-.5-4-2.6-3-5a6.2,6.2,0,0,1,5.2-4.1,2.7,2.7,0,0,1,3.1,2.9,4.9,4.9,0,0,1-.1,1.2c.6-.6,1.5-.8,1.3-1.9a4.1,4.1,0,0,0-5-3.3,6.9,6.9,0,0,0-4,2.2,3.7,3.7,0,0,1-4.1,1.1l-5.5-1.6c-.6-.2-.7-.4-.5-.9l6.6-19.4c.2-.5.3-.7,1-.5a5.7,5.7,0,0,0,4.4-.5,88.2,88.2,0,0,1,11.2-4.1,18,18,0,0,1,6.9-.9A4.8,4.8,0,0,1,54,37.1c.4.3.4.5-.1.8l-4,2.1a4.1,4.1,0,0,0-1.7,1.5c-1.3,2.3-2.6,4.5-3.7,6.9a5.1,5.1,0,0,0,3,7.1A1.6,1.6,0,0,0,49.7,54.6ZM18.2,59.1a1.3,1.3,0,0,0-1.4-1.3,1.4,1.4,0,0,0,0,2.8A1.5,1.5,0,0,0,18.2,59.1Zm75.2-2.4a1.3,1.3,0,0,0-1.3,1.4,1.4,1.4,0,0,0,1.4,1.4A1.5,1.5,0,0,0,94.9,58,1.3,1.3,0,0,0,93.4,56.7ZM54.7,49.6l2.8-2.9A4.3,4.3,0,0,0,54.7,49.6Z"/>
    <path class="cls-2" d="M54.7,49.6a4.3,4.3,0,0,1,2.8-2.9Z"/>
    <path class="cls-2" d="M61.3,77.3h0Z"/>
    <path class="cls-2" d="M72.8,68.3h0Z"/>
    <path class="cls-2" d="M44.7,70.8h0Z"/>
  </g>
</svg>
