<svg id="Layer_1" data-name="Layer 1" xmlns="http://www.w3.org/2000/svg" width="110" height="110" viewBox="0 0 110 110">
  <title>NO FEES</title>
  <g>
    <path d="M66.3,37.8l15.1-2.3C80.3,26.4,76.8,19.3,68.2,16a30,30,0,0,0-26.4,2,20,20,0,0,0-7.7,8.1,8,8,0,0,1-.8,1.6L19.6,14.1C31.2,4,44.7-.1,59.9,1.1c22.2,1.7,40.7,17.8,46.6,37.5s1.9,36.5-10.7,52l-.5-.3C86,81,76.7,71.6,67.4,62.4a3.5,3.5,0,0,1-1.1-2.7c.1-3.7,0-7.4,0-11.3H54.8a2.9,2.9,0,0,1-2.2-.9c-1.1-1.2-2.3-2.3-3.4-3.4a3.9,3.9,0,0,1-1.4-2.5,17.9,17.9,0,0,1-.4-7.3,9.1,9.1,0,0,1,17.6-1C65.5,34.7,65.9,36.2,66.3,37.8Z"/>
    <path d="M14.3,19.2,19,24,30.4,35.4a3.7,3.7,0,0,1,1.2,2.4c.4,3.5.9,7,1.4,10.6H25.5v13h9.9c.9-.1,1.1.3,1.2,1.2a19.2,19.2,0,0,1-2,9.1,26.8,26.8,0,0,1-8.3,9.4,1.5,1.5,0,0,0-.5,2.2c1.7,3.9,3.4,7.8,5.2,11.7l.4.9,4.2-2.5c5.2-2.8,10.7-2.8,16.4-1.3s8.4,2.1,12.7,2.9c7,1.4,13.7-.2,20.1-3.5l-.9-2.1,6.4,6.4c-18.1,16.6-47.7,18.3-68.9,1.6C-1.5,79.4-7.2,44.5,14.3,19.2Z"/>
    <path d="M45.9,78.5c4.1-5,7.1-10.3,6.4-17.1h3.8a1.3,1.3,0,0,1,.7.4c5.8,5.8,11.5,11.6,17.3,17.3.1.1.1.3.2.3a18.8,18.8,0,0,1-12.8.6l-5.2-1.3a23.8,23.8,0,0,0-9.2-.3Z"/>
  </g>
</svg>
