<svg id="Layer_1" data-name="Layer 1" xmlns="http://www.w3.org/2000/svg" width="50" height="50" viewBox="0 0 50 50">
  <defs>
    <style>
      .cls-1 {
        fill: #fff;
      }
    </style>
  </defs>
  <title>technology</title>
  <path class="cls-1" d="M36.3,2.3a2,2,0,0,0-2-1.6H15.7a2,2,0,0,0-2,1.6L12,12.1a.7.7,0,0,0,.5.8.8.8,0,0,0,.9-.6l1.7-9.7a.6.6,0,0,1,.6-.5H34.3a.6.6,0,0,1,.6.5C39.2,26.8,39,25.5,39,25.5a.6.6,0,0,1-.6.6H11.6a.7.7,0,0,1-.6-.7l1.8-9.8c.1-.4-.2-.7-.6-.8s-.7.2-.8.6C9.5,26,9.6,25.3,9.6,25.5a2,2,0,0,0,2,2.1h8.8a1.4,1.4,0,0,0-.2.7,1.9,1.9,0,0,0,.3,1c-4,1.5-6.6,4.8-6.6,8.6a9.3,9.3,0,0,0,5,7.9,2.1,2.1,0,0,0-.5,1.3,2.2,2.2,0,0,0,2.3,2.2h8.6a2.2,2.2,0,0,0,2.2-2.2,2,2,0,0,0-.4-1.3c.6-.3,1-.7,1.5-1a.8.8,0,0,0,.1-1,.7.7,0,0,0-1-.1,8.2,8.2,0,0,1-2,1.2H20.3a7.8,7.8,0,0,1-4.9-7c0-3.4,2.5-6.4,6.3-7.5.5.2.5.1,5.9.1h.7a9.9,9.9,0,0,1,3.8,2v6a.7.7,0,1,0,1.4,0V34.1a7,7,0,0,1,1.1,3.8,7.3,7.3,0,0,1-.9,3.5.7.7,0,1,0,1.2.7,7.9,7.9,0,0,0,1.2-4.2,8.9,8.9,0,0,0-2.6-6.1V27.6h4.9a2,2,0,0,0,2-2.1c0-.2.3,1.3-4.1-23.2Zm-7,44a.8.8,0,0,1,0,1.6H20.7a.8.8,0,0,1,0-1.6ZM22.1,29a.8.8,0,0,1-.4-.7.7.7,0,0,1,.7-.7h5.2a.7.7,0,0,1,.7.7.8.8,0,0,1-.7.8C22,29.1,22.3,29.1,22.1,29Zm10,1.6a10.5,10.5,0,0,0-2.6-1.3,1.8,1.8,0,0,0,.2-1,1.5,1.5,0,0,0-.1-.7h2.5Z"/>
</svg>
