<svg id="Layer_1" data-name="Layer 1" xmlns="http://www.w3.org/2000/svg" width="50" height="50" viewBox="0 0 50 50">
  <defs>
    <style>
      .cls-1 {
        fill: #fff;
      }
    </style>
  </defs>
  <title>aftercare</title>
  <g>
    <path class="cls-1" d="M49.1,22.7h0a.7.7,0,0,1-.7-.7h0V20.4a.7.7,0,0,1,.7-.7h0a.8.8,0,0,1,.8.7V22a.8.8,0,0,1-.8.7Z"/>
    <path class="cls-1" d="M34.5,45.6h-.4a18.9,18.9,0,0,1-6.7-4.5,2.6,2.6,0,0,1-.6-2.4,4.1,4.1,0,0,0,.1-1.1v-.4a10.4,10.4,0,0,1,2.6-7.1,14.5,14.5,0,0,1,2.9-2.6l2-1.1a3,3,0,0,0,1.3-.9,4.4,4.4,0,0,0,.8-1.5,30.6,30.6,0,0,1,2.6-5.5,2.4,2.4,0,0,1,2.6-.9.9.9,0,0,1,.7.3,2.1,2.1,0,0,1,.8,2.6L41.1,27a13.6,13.6,0,0,0,3.3-5.7,11.4,11.4,0,0,0-.2-6.6c-1.2-4-.1-5.3.1-5.5a.9.9,0,0,1,.8-.4,1.5,1.5,0,0,1,1.1.4,10.1,10.1,0,0,1,2.5,4.1,16.8,16.8,0,0,1,.9,3.2c0,.4-.2.8-.6.8a.6.6,0,0,1-.8-.6,24.5,24.5,0,0,0-.8-2.9,11.3,11.3,0,0,0-2.1-3.5c-.2.3-.5,1.4.3,4a13.3,13.3,0,0,1,.2,7.4,14.5,14.5,0,0,1-4.1,6.7,1.4,1.4,0,0,1-1.9-.1,1.4,1.4,0,0,1-.3-1.3l2.4-7a.9.9,0,0,0-.4-1h-.2a1,1,0,0,0-1,.4,24.5,24.5,0,0,0-2.4,5.2,7.2,7.2,0,0,1-1.1,1.9A4.6,4.6,0,0,1,35,27.7l-1.8,1A20.4,20.4,0,0,0,30.5,31a10.2,10.2,0,0,0-2.2,6.2v.3a7.6,7.6,0,0,1-.1,1.5,1.1,1.1,0,0,0,.3,1.1,15.3,15.3,0,0,0,6.1,4.1h0a4.2,4.2,0,0,0,.2-.6c.1-.3,2.3-6.2,9.8-10.8a6.1,6.1,0,0,0,2-2.2.3.3,0,0,0,.1-.2.7.7,0,1,1,1.3.5c0,.1-.1.2-.1.3a7.3,7.3,0,0,1-2.6,2.9c-7,4.2-9.1,9.9-9.1,9.9a3.4,3.4,0,0,1-.3.8,1.5,1.5,0,0,1-1.4.8Z"/>
    <path class="cls-1" d="M48.5,27.9h-.1a.7.7,0,0,1-.5-.9h0c.1-.4.1-.9.2-1.4s.4-.7.8-.6a.6.6,0,0,1,.6.8l-.3,1.5c0,.4-.3.6-.7.6Z"/>
    <path class="cls-1" d="M15.4,45.6a1.6,1.6,0,0,1-1.4-.8c-.1-.2-.1-.4-.3-.8s-2.1-5.7-9.1-9.9A7.3,7.3,0,0,1,2,31.2c0-.1-.1-.2-.1-.3h0A31.9,31.9,0,0,1,.4,16.5a11.6,11.6,0,0,1,.8-3.2A9.3,9.3,0,0,1,3.8,9.2a1.2,1.2,0,0,1,1-.4.9.9,0,0,1,.8.4c.2.2,1.3,1.5.1,5.5a11.4,11.4,0,0,0-.2,6.6A12.8,12.8,0,0,0,8.9,27L6.7,20.5a2.2,2.2,0,0,1,.9-2.6.9.9,0,0,1,.6-.3,2.3,2.3,0,0,1,2.6.9A30.6,30.6,0,0,1,13.4,24a4.4,4.4,0,0,0,.8,1.5,3,3,0,0,0,1.3.9l2,1.1a14.5,14.5,0,0,1,2.9,2.6,10.5,10.5,0,0,1,2.7,7.1v.4c0,.3.1.7.1,1.1a2.3,2.3,0,0,1-.6,2.4,18,18,0,0,1-6.7,4.5ZM3.2,30.4c0,.1.1.1.1.2a6.1,6.1,0,0,0,2,2.2c7.5,4.6,9.7,10.5,9.8,10.8a4.2,4.2,0,0,0,.2.6h.1a16.9,16.9,0,0,0,6.1-4.1,1.4,1.4,0,0,0,.3-1.1,3.9,3.9,0,0,1-.2-1.5v-.3A8.9,8.9,0,0,0,19.4,31a20.4,20.4,0,0,0-2.7-2.3,10.4,10.4,0,0,0-1.8-1,4.6,4.6,0,0,1-1.8-1.3,6.9,6.9,0,0,1-1-1.9,31.1,31.1,0,0,0-2.5-5.2,1,1,0,0,0-1-.4H8.4A.9.9,0,0,0,8,20l2.4,7a1.5,1.5,0,0,1-.8,1.7,1.4,1.4,0,0,1-1.3-.3,14.7,14.7,0,0,1-4.2-6.7,14.3,14.3,0,0,1,.2-7.4c.8-2.5.5-3.7.4-4a8.4,8.4,0,0,0-2.1,3.5,9.6,9.6,0,0,0-.8,2.9A30.4,30.4,0,0,0,3.2,30.4Z"/>
    <path class="cls-1" d="M24.8,24.8l-.5-.2c-.4-.3-9.9-8.1-9.9-13.9a6.4,6.4,0,0,1,6.4-6.3,6.6,6.6,0,0,1,4,1.3,6.4,6.4,0,0,1,8.9,1.1,6.2,6.2,0,0,1,1.4,3.9c0,5.8-9.5,13.6-9.9,13.9l-.4.2Zm-4-19a4.9,4.9,0,0,0-4.9,4.9c0,4.5,7,10.8,8.9,12.5,1.8-1.7,8.9-8,8.9-12.5a4.9,4.9,0,0,0-5-4.9,4.8,4.8,0,0,0-3.4,1.4.7.7,0,0,1-1,0,5.2,5.2,0,0,0-3.5-1.4Z"/>
  </g>
</svg>
