<svg id="Layer_1" data-name="Layer 1" xmlns="http://www.w3.org/2000/svg" width="50" height="50" viewBox="0 0 50 50">
  <defs>
    <style>
      .cls-1 {
        fill: #fff;
      }
    </style>
  </defs>
  <title>experience provider</title>
  <g>
    <path class="cls-1" d="M36.1,38.6c-.2,0-.4,0-.5-.2l-1-.8a.8.8,0,0,1-.2-1,.8.8,0,0,1,.9-.2,6.9,6.9,0,0,1,1.3,1.1.7.7,0,0,1,0,.9.6.6,0,0,1-.5.2Z"/>
    <path class="cls-1" d="M38,49.1H11.9a.7.7,0,0,1-.7-.7V42.7a7.6,7.6,0,0,1,7.6-7.5H31.1a.7.7,0,0,1,.7.7.8.8,0,0,1-.7.7H18.8a6.1,6.1,0,0,0-6.2,6.1v5H37.3v-5a6.6,6.6,0,0,0-.1-1.4.8.8,0,0,1,.4-.9.8.8,0,0,1,.9.5h0a8.8,8.8,0,0,1,.2,1.7v5.7A.7.7,0,0,1,38,49.1Z"/>
    <path class="cls-1" d="M25,32.6a7.3,7.3,0,1,1,7.2-7.3h0A7.3,7.3,0,0,1,25,32.6Zm0-13.1a5.9,5.9,0,1,0,5.8,5.8h0A5.8,5.8,0,0,0,25,19.5Z"/>
    <path class="cls-1" d="M31.7,49.1H18.2a.7.7,0,0,1-.6-.7V44.5a.7.7,0,0,1,.6-.7.7.7,0,0,1,.7.7v3.2H31V44.5a.7.7,0,0,1,.7-.7.8.8,0,0,1,.7.7v3.9A.8.8,0,0,1,31.7,49.1Z"/>
    <path class="cls-1" d="M46,20.2h-.3l-3.6-1.9-3.5,1.9a.9.9,0,0,1-1-.3c0-.2-.1-.3,0-.5l.6-3.9-2.8-2.8a.8.8,0,0,1-.1-1l.4-.2,4-.6,1.8-3.6a.8.8,0,0,1,1-.3l.2.3,1.8,3.6,4,.6c.4,0,.6.4.6.8l-.2.4L46,15.5l.7,3.9c0,.4-.2.8-.6.8Zm-3.9-3.4h.3l2.7,1.4-.5-3c-.1-.2,0-.4.2-.6l2.1-2.1L44,12.2a.7.7,0,0,1-.6-.4L42.1,9.2l-1.3,2.6a.7.7,0,0,1-.5.4l-3,.4,2.2,2.1a1.4,1.4,0,0,1,.2.6l-.6,3,2.7-1.4Z"/>
    <path class="cls-1" d="M28.9,14.2h-.3L25,12.2l-3.6,1.9a.6.6,0,0,1-.9-.3.6.6,0,0,1-.1-.4l.7-4L18.2,6.6a.9.9,0,0,1,0-1l.4-.2,4-.5,1.8-3.6a.7.7,0,0,1,1-.3c.1.1.2.2.2.3l1.8,3.6,4,.5a.8.8,0,0,1,.6.8l-.2.4L28.9,9.4l.7,4a.8.8,0,0,1-.6.8ZM25,10.8h.3L28,12.2l-.5-2.9c-.1-.2,0-.4.2-.6l2.1-2.1-3-.4a1,1,0,0,1-.5-.4L25,3.1,23.7,5.8a1,1,0,0,1-.5.4l-3,.4,2.1,2.1c.2.2.3.4.2.6L22,12.2l2.7-1.3Z"/>
    <path class="cls-1" d="M11.8,20.2h-.4L7.9,18.3,4.3,20.2a.8.8,0,0,1-.9-.3.9.9,0,0,1-.1-.5L4,15.5,1.1,12.7a.9.9,0,0,1,0-1l.4-.2,4-.6L7.3,7.3A.7.7,0,0,1,8.2,7c.2.1.2.2.3.3l1.8,3.6,4,.6a.6.6,0,0,1,.5.8l-.2.4-2.8,2.8.6,3.9c.1.4-.1.8-.5.8ZM7.9,16.8h.3l2.6,1.4-.5-3a1.4,1.4,0,0,1,.2-.6l2.2-2.1-3-.4a.7.7,0,0,1-.5-.4L7.9,9.2,6.6,11.8a.7.7,0,0,1-.6.4l-2.9.4,2.1,2.1c.2.2.3.4.2.6l-.5,3,2.7-1.4Z"/>
  </g>
</svg>
