<?xml version="1.0" encoding="utf-8"?>
<!-- Generator: Adobe Illustrator 23.0.1, SVG Export Plug-In . SVG Version: 6.00 Build 0)  -->
<svg version="1.1" id="Layer_1" xmlns="http://www.w3.org/2000/svg" xmlns:xlink="http://www.w3.org/1999/xlink" x="0px" y="0px"
	 viewBox="0 0 70 70" style="enable-background:new 0 0 70 70;" xml:space="preserve">
<g>
	<path d="M25.95,58.17c-4.26-4.54-8.33-8.88-12.17-12.98c3.14-3.3,6.39-7.05,10.03-10.37c1.21-1.1,3.41-1.48,5.17-1.52
		c6.98-0.17,13.96-0.09,20.94-0.07c2.17,0.01,2.99,0.74,3.14,2.59c0.14,1.68-0.66,2.84-2.36,2.92c-3.15,0.15-6.32,0.12-9.48,0.14
		c-2.79,0.02-3.68,0.57-3.63,2.28c0.05,1.58,0.85,2.02,3.65,2.02c2.63,0,5.26,0.09,7.87-0.05c0.91-0.05,1.99-0.46,2.64-1.08
		c3.6-3.4,7.04-6.97,10.65-10.36c0.79-0.75,2.02-1.31,3.1-1.39c0.9-0.07,2.22,0.47,2.66,1.17c0.35,0.55-0.12,1.95-0.64,2.66
		c-2.55,3.46-5.24,6.81-7.87,10.2c-1.17,1.51-2.43,2.96-3.49,4.54c-1.16,1.71-2.63,2.34-4.69,2.31c-5.49-0.1-10.98,0.02-16.47-0.07
		c-1.58-0.02-2.72,0.46-3.76,1.6C29.6,54.51,27.86,56.21,25.95,58.17z"/>
	<path d="M48.12,17.26c-3.5,3.59-6.99,7.19-10.51,10.77c-1.82,1.85-3.11,1.89-4.89,0.08c-3.61-3.66-7.21-7.31-10.73-11.05
		c-3.07-3.26-3.75-7.36-1.93-11.07c1.84-3.76,4.95-5.61,9.09-5.44c1.42,0.06,2.97,0.58,4.18,1.33c1.28,0.79,2.18,0.65,3.39,0.02
		c5.12-2.65,10.41-1.34,13.02,3.35C50.6,6.81,53.01,12.37,48.12,17.26z M23.38,10.93c0.22,0.2,0.68,0.96,1.14,0.96
		c0.5,0,1.34-0.65,1.42-1.12c0.35-2.04,1.44-3.11,3.44-3.55c0.52-0.12,0.88-0.99,1.31-1.52c-0.61-0.32-1.24-0.96-1.83-0.92
		C26.02,4.95,23.51,7.64,23.38,10.93z"/>
	<path d="M26.88,61.65c-0.33,0.5-0.56,1-0.92,1.38c-1.82,1.9-3.67,3.76-5.51,5.64c-1.03,1.05-2.06,1.04-3.1-0.01
		c-4.94-4.95-9.88-9.89-14.82-14.82c-1.03-1.03-1.14-2-0.03-3.08c1.84-1.79,3.66-3.61,5.45-5.45c1.06-1.09,1.97-1.04,3.04,0.04
		c4.92,4.96,9.87,9.89,14.8,14.84C26.19,60.61,26.49,61.13,26.88,61.65z"/>
</g>
</svg>
