<svg id="Layer_1" data-name="Layer 1" xmlns="http://www.w3.org/2000/svg" width="110" height="110" viewBox="0 0 110 110">
  <defs>
    <style>
      .cls-1 {
        fill: #fff;
      }
    </style>
  </defs>
  <title>NO STRINGS ATTACHED</title>
  <g>
    <path d="M95.3,43.3c1.5-1.8,2.8-3.5,4.3-5.2a20.6,20.6,0,0,1,3.1-2.8c1.4-1.1,2.8-.5,3.4,1.2a6,6,0,0,1-1.1,6,73.3,73.3,0,0,0-8.1,11.1h0c-2.8,2.1-2.6,5.2-2.8,8.2a109.4,109.4,0,0,1-2.7,17,14.1,14.1,0,0,1-5.7,8.6l1.4,1.9a11.8,11.8,0,0,1,2.4,7.2c.1,3.6.1,7.2.1,10.8a1.6,1.6,0,0,1-.7,1.3c-.8.4-1.3-.2-1.3-1.3-.1-3.3,0-6.7-.1-10a14.7,14.7,0,0,0-.4-3.6,9.3,9.3,0,0,0-4.2-5.7L72.7,81a1.8,1.8,0,0,0-2.6.1L57.8,91.7l-1.3,1.1,10.2,8.1,7.9,6.2a2.9,2.9,0,0,1,1,1.2.8.8,0,0,1-.1.9,1.1,1.1,0,0,1-1,.1c-.3,0-.5-.3-.7-.5-4.3-3.2-8.6-6.4-12.8-9.7l-.8-.5-3.9,6.7c-1.1,1.9-1.6,1.9-2.7.1s-2.5-4.5-3.8-6.8l-7.6,5.9c-1.9,1.5-3.8,2.9-5.8,4.2a7.6,7.6,0,0,1-2,.6l-.3-.5a7.9,7.9,0,0,1,1.4-1.8C53,93.5,69.5,78.7,86.1,64.1c1.8-1.7,1.9-2.3.8-4.5a14.7,14.7,0,0,0-4.8-5.4c-1.5-1.1-2.1-1.1-3.6-.1l-13.9,9L27.9,87.4c-2.4,1.6-4.3,3.5-5,6.4a23.5,23.5,0,0,0-.5,3.7c-.1,3,0,6-.1,8.9a2.5,2.5,0,0,1-.2,1.3c-.2.5-.7.8-1,1.2s-.8-.9-.8-1.4c0-2.5,0-5,.1-7.5s.1-2.7.1-4a11.1,11.1,0,0,1,2.7-7.2,3.1,3.1,0,0,0,.7-.9l-1.6-1.2a11.1,11.1,0,0,1-3.6-5.6,113.2,113.2,0,0,1-4.3-18.3c-.3-2.4-.6-4.8-1.1-7.1a11.7,11.7,0,0,0-1.7-4.5c-2-2.9-4.3-5.8-6.5-8.5a6.1,6.1,0,0,1-1.3-5.9c.5-2,2.1-2.7,3.7-1.4a16.4,16.4,0,0,1,3,2.9c.9,1,1.7,2.1,2.7,3.3.3-2.2.5-4.2.8-6.2a48.8,48.8,0,0,1,7.6-21.3C25.3,8.4,30,3.8,36.8,1.8,40.1.9,43.5.1,46.9,1A29.2,29.2,0,0,1,50,2.4a1.1,1.1,0,0,0,1.1.1C55.9.5,60.9.4,66,1.2a34.2,34.2,0,0,1,27.8,26c.8,3.9.8,8,1.2,12,.1,1.3,0,2.6,0,3.9ZM50.9,64.4l.6-.7a3.8,3.8,0,0,1,4.8-1.1,19.2,19.2,0,0,0,2.5,1.2,1.4,1.4,0,0,0,1.4-.1c1.4-.8,2.8-1.9,4.2-2.7,5.5-3.4,10.4-7.6,16.4-10a1.1,1.1,0,0,0,.5-.8c.2-2,.3-4.1.4-6.1a2.3,2.3,0,0,0-.2-1.2c-2.2-3.3-5-5.9-8.9-6.8l-6.1-1c-4.4-.9-8.8-1.7-13.1-2.7a21.5,21.5,0,0,1-9.4-5,17.7,17.7,0,0,1-9.9,6.4l-3.7,1.3a2.2,2.2,0,0,0-1.7,2,67.3,67.3,0,0,0-.8,14.2c0,.1.1.1.2.2,2.4-.3,3-.1,5.1,1.3l8.2,5.4Zm2,3.7-.8-.5L36.2,57.2l-5-3.3a2.3,2.3,0,0,0-2.7-.2,15.4,15.4,0,0,0-5.8,6.6c-.6,1.5-.5,2.2.7,3.3L37.6,76.3c1.2,1.1,1.3,1.1,2.7.2,3.8-2.6,7.7-5.1,11.6-7.6ZM88.2,57.5c1.5-.9,3-1.7,4.4-2.7a13.8,13.8,0,0,0,3.1-3.3,98.7,98.7,0,0,1,7.2-9.8,12.9,12.9,0,0,0,1.7-3.3,1.6,1.6,0,0,0-.4-1.3,1.9,1.9,0,0,0-1.2.3,8.6,8.6,0,0,0-1.3,1.4A56.5,56.5,0,0,1,87.6,51.4a17.6,17.6,0,0,0-2.9,2.1ZM25.3,53.3l-7.4-5a35.6,35.6,0,0,1-8.8-8.5,22,22,0,0,0-2-2.3,3.7,3.7,0,0,0-1.4-.4c-.1.5-.4,1.1-.2,1.4a18.5,18.5,0,0,0,1.9,3.7c2,2.9,4.5,5.5,6.2,8.6s5.2,4.7,8,6.8ZM52.9,65.4c1.6,1.7,2.4,1.8,4,.1C55.7,63.7,54.1,63.7,52.9,65.4Z"/>
    <path class="cls-1" d="M52.9,68.1l-1,.8c-3.9,2.5-7.8,5-11.6,7.6-1.4.9-1.5.9-2.7-.2L23.4,63.6c-1.2-1.1-1.3-1.8-.7-3.3a15.4,15.4,0,0,1,5.8-6.6,2.3,2.3,0,0,1,2.7.2l5,3.3L52.1,67.6Z"/>
    <path d="M66.8,49.7a11.5,11.5,0,0,1-6.2-2.4,2.7,2.7,0,0,1-.1-4.2c4.7-4.8,10-4.3,14.9-.5a2.5,2.5,0,0,1,0,3.7A11.1,11.1,0,0,1,66.8,49.7Zm3.3-1.6.3.2,4-3.2a1.3,1.3,0,0,0-.1-1.2c-1.1-.8-2.3-1.4-3.4-2.1a9.9,9.9,0,0,1,.4,3.3A12.5,12.5,0,0,1,70.1,48.1Zm-5.5-.2v-.2a10.6,10.6,0,0,1-.9-2.5,8.3,8.3,0,0,1,.1-2.7,17.3,17.3,0,0,0-2.5,2.1c-.3.2-.3,1.1-.2,1.3Zm1.7-3.4c1.5-1.3,1.6-1.6.5-2.7s-.8-.4-1.2.1S64.6,43.3,66.3,44.5Z"/>
    <path d="M42,49.7a11.5,11.5,0,0,1-8.5-3.2,2.5,2.5,0,0,1,.3-4.2c2.6-1.9,5.4-3.1,8.6-2.5a9.9,9.9,0,0,1,6.3,3.8,2.4,2.4,0,0,1-.4,3.5A11,11,0,0,1,42,49.7Zm.9-1.5h.3l3.9-2.1c.7-.4,1.1-1,.4-1.6l-3.7-2.9A6.2,6.2,0,0,1,42.9,48.2Zm-6.2-5.8-2.3,1.4a.8.8,0,0,0-.2,1.3c.9.9,2,1.6,2.8,2.3ZM39,41.3c-.5.7-1,1-1.1,1.5s.8,1.8,1.4,1.5,1-.8,1.6-1.3Z"/>
    <path d="M60.7,54.5c-.5.7-.8,1.5-1.3,1.8s-2.8,1.3-4.2,2-.4,0-.6,0-2.7-1-3.9-1.7-1.8-3-.3-4.3,6.8-2.1,9,0A21.4,21.4,0,0,1,60.7,54.5ZM54.8,52a17,17,0,0,0-3.2,1c-1.3.7-1.1,2.1.2,2.8a5.9,5.9,0,0,0,6,0,2,2,0,0,0,1.1-1.3,2.3,2.3,0,0,0-1-1.6A14,14,0,0,0,54.8,52Z"/>
    <path class="cls-1" d="M70.9,41.8c1.1.7,2.3,1.3,3.4,2.1a1.3,1.3,0,0,1,.1,1.2l-4,3.2-.3-.2"/>
  </g>
</svg>
