<?xml version="1.0" encoding="utf-8"?>
<!-- Generator: Adobe Illustrator 23.0.1, SVG Export Plug-In . SVG Version: 6.00 Build 0)  -->
<svg version="1.1" id="Layer_1" xmlns="http://www.w3.org/2000/svg" xmlns:xlink="http://www.w3.org/1999/xlink" x="0px" y="0px"
	 viewBox="0 0 70 70" style="enable-background:new 0 0 70 70;" xml:space="preserve">
<g>
	<path d="M44.17,54.75c0,3.25,0,6.17,0,9.38c1.49,0,2.97,0.07,4.44-0.02c1.24-0.07,1.65,0.43,1.57,1.61
		c-0.07,1.08-0.01,2.16-0.01,3.33c-7.94,0-15.61,0-23.43,0c0-1.51,0-2.97,0-4.64c1.14-0.1,2.27-0.26,3.4-0.27
		c1.06,0,1.42-0.44,1.39-1.46c-0.05-1.85,0.07-3.71-0.06-5.55c-0.04-0.63-0.48-1.38-0.97-1.8c-2.9-2.45-6.03-4.65-8.79-7.24
		C15.52,42.3,9.55,36.25,3.33,30.46c-1.57-1.47-1.48-5.39-0.23-6.7c1.05-1.1,2.7-1.35,4.27-0.35c1.01,0.65,1.88,1.52,2.75,2.36
		c6.57,6.35,13.13,12.7,19.67,19.07c1.35,1.32,2.79,2.08,4.78,1.89c7.57-0.72,14.82,0.9,21.94,3.25c2.58,0.85,5.13,1.77,7.69,2.67
		c0.49,0.17,0.96,0.39,1.41,0.65c1.95,1.13,2.7,3.1,1.94,5.01c-0.7,1.75-2.68,2.81-4.74,2.2c-4.31-1.29-8.56-2.77-12.86-4.13
		C48.11,55.81,46.23,55.33,44.17,54.75z"/>
	<path d="M67.33,46.5c-0.01,2.63-2.2,4.4-4.83,3.68c-2.27-0.63-4.51-1.45-6.66-2.41c-4.71-2.11-9.47-3.42-14.74-2.67
		c-5.55,0.79-10.16-1.15-13.78-5.53c-1.57-1.9-3.58-3.44-5.2-5.31c-0.74-0.85-1.35-2.07-1.44-3.17c-0.22-2.82,2.57-4.7,5.17-3.61
		c0.83,0.35,1.59,0.94,2.27,1.54c1.12,1,2.19,2.06,3.2,3.17c3,3.29,6.24,5.07,11.15,4.72c8.01-0.58,15.36,2.62,22.51,5.93
		C66.87,43.71,67.34,44.69,67.33,46.5z"/>
	<path d="M61.95,24.25c1.09-1.23,2.05-1.76,2.94-0.1c0.09,0.17,0.37,0.38,0.55,0.36c2.47-0.18,2.21,1.52,2.17,3.09
		c-0.03,1.03-0.01,2.05-0.01,3.24c-0.8,0.04-1.41,0.1-2.02,0.1c-4.8,0.01-9.6,0.09-14.39-0.04c-1.82-0.05-3.13,0.31-3.9,2.05
		c-0.18,0.39-0.55,0.7-1.25,1.55c-0.42-1.91-1-3.36-1.02-4.81c-0.11-7.8-0.07-15.61-0.09-23.41c0-0.62,0-1.25,0-2.02
		c-0.71-0.06-1.26-0.14-1.82-0.14c-2.83-0.01-5.66-0.02-8.5,0c-2.74,0.01-4.66,2.32-4.19,5.05c0.18,1.02,0.45,2.03,0.59,3.06
		c0.05,0.39-0.05,1.01-0.3,1.17c-0.27,0.17-0.88,0.04-1.21-0.17c-2.6-1.61-5.19-3.25-7.74-4.94c-0.31-0.21-0.64-0.77-0.56-1.07
		c0.07-0.29,0.62-0.55,1.01-0.66c0.61-0.17,1.25-0.26,1.88-0.28c2.27-0.07,4.11-0.54,5.19-3c0.75-1.7,2.71-2.3,4.58-2.32
		c3.69-0.04,7.38-0.01,11.07,0.08c2.22,0.05,2.93,0.9,2.93,3.37c0.01,5.9-0.04,11.79-0.01,17.69c0,0.75,0.35,1.5,0.53,2.25
		c0.63-0.28,1.34-0.46,1.88-0.86c1.05-0.76,1.69-0.32,2.24,0.59c1.95-1.51,1.95-1.51,3.29,0.22c1.87-1.55,1.87-1.55,3.28-0.19
		C59.97,22.93,60.92,22.48,61.95,24.25z"/>
	<path d="M18.14,28.2c-3.73-0.05-6.76-3.09-6.7-6.72c0.06-3.81,3.08-6.7,6.94-6.65c3.66,0.05,6.6,3.14,6.53,6.87
		C24.85,25.21,21.67,28.26,18.14,28.2z"/>
</g>
</svg>
