<svg id="Layer_1" data-name="Layer 1" xmlns="http://www.w3.org/2000/svg" width="50" height="50" viewBox="0 0 50 50">
  <defs>
    <style>
      .cls-1 {
        fill: #fff;
      }
    </style>
  </defs>
  <title>teeth</title>
  <g>
    <path class="cls-1" d="M33.7.8a12.5,12.5,0,0,0-5,1.1,9.5,9.5,0,0,1-7.4,0A12.8,12.8,0,0,0,4.5,8.6a14.4,14.4,0,0,0-1,5A28.1,28.1,0,0,0,7.8,28.5l.2.4,3.9,17a4.2,4.2,0,0,0,5,3.2,4.3,4.3,0,0,0,3.2-3.4l2.7-16.1a2.2,2.2,0,0,1,2.6-1.9,2.2,2.2,0,0,1,1.8,1.9l2.7,16.1a4.2,4.2,0,0,0,8.2.2l3.9-17,.2-.4a28.1,28.1,0,0,0,4.3-14.9A12.8,12.8,0,0,0,33.7.8Zm7,26.8-.3.5-.2.3L36.3,45.5a2.3,2.3,0,0,1-2.8,1.8,2.4,2.4,0,0,1-1.8-1.9L29,29.3A4.1,4.1,0,0,0,24.3,26,3.9,3.9,0,0,0,21,29.3L18.3,45.4a2.4,2.4,0,0,1-2.7,2,2.3,2.3,0,0,1-1.9-1.9L9.8,28.4l-.2-.3-.3-.5a26.8,26.8,0,0,1-4-14,11,11,0,0,1,11-11,10.4,10.4,0,0,1,4.3.9,11.2,11.2,0,0,0,8.8,0A10.9,10.9,0,0,1,43.8,9.3a10.4,10.4,0,0,1,.9,4.3A26.8,26.8,0,0,1,40.7,27.6Z"/>
    <path class="cls-1" d="M13.4,7.1l-.2-.9C11.4,6.6,8,8.5,8,13.4H9.8C9.8,8.8,13.4,8,13.5,8Z"/>
    <rect class="cls-1" x="15.2" y="6.2" width="1.8" height="1.79"/>
  </g>
</svg>
