<svg id="Layer_1" data-name="Layer 1" xmlns="http://www.w3.org/2000/svg" width="70" height="70" viewBox="0 0 70 70">
  <title>ZIRCONIUM POST</title>
  <g>
    <path d="M42.2,41.9l.2,3.1.4-.2c.5.8,1.5,1.7,1.5,2.5s-1.4,1.9-2.8,2c.1-1.1.2-2.2.3-3.1L28.3,48.6c.4,2.6.4,2.7,2.8,2.4s7-1.2,10.5-1.8a19.2,19.2,0,0,0,0,2.4c0,.4.3.7.6,1.1s1.3,1.2,1.2,1.7-1,1.3-1.5,1.8a3.8,3.8,0,0,1-1,.3,26.6,26.6,0,0,1-.2-3l-9.4,1.6c-2.5.5-2.5.6-1.8,3.1l2-.2,9.4-1.5c0,1.4-.8,3,1.1,4.1.3.1.5,1.3.2,1.6s-1.2,1-1.9,1.5l-.4-.3.3-2.8L29.9,62.5l.3,2.8,9.6-1.6a5.1,5.1,0,0,1-3.5,5.4c-2.2.7-4.3-.1-5.8-2.3-.4-.5-1.2-.8-1.7-1.3s-.9-.8-.9-1.3a2.2,2.2,0,0,1,.7-1.7,2.5,2.5,0,0,0-.5-3.9c-1.6-.7-1.6-2-.5-3.3s.7-2.1,1.1-3.2-1.2-.2-1.5-.5-1.1-.9-1.2-1.4a2,2,0,0,1,.7-1.7,2.4,2.4,0,0,0-.3-3.9c-1.8-1.1-1.8-2.2,0-3.4a1.9,1.9,0,0,0,.6-.7,4.5,4.5,0,0,0-2-4.4,3.3,3.3,0,0,1-1.4-2.3c.1-3.2-1.2-5.8-3-8.3a25.8,25.8,0,0,1-4.5-11.4A12.7,12.7,0,0,1,19.7,3a7.4,7.4,0,0,1,8.7-1.6c4.4,2,8.4,1.8,13.1.3,7-2.4,12.3,2.2,12.6,10.1.2,4.8-2,8.9-4.1,13a7.8,7.8,0,0,1-1,1.5,9.3,9.3,0,0,0-2.6,7.5c.2,1.4-.7,2.3-2.1,2.7a3.4,3.4,0,0,0-1.3,1,8.6,8.6,0,0,1,2.2,1.9c.2.4-.2,1.4-.6,1.8a16.9,16.9,0,0,1-2.4.8l.4-3.1-1.6.3-11.2,2c-2.4.4-2.6.8-1.6,3.6ZM35,27.4h7.9a3,3,0,0,0,3-1.7c1.2-2.1,2.5-4.1,3.6-6.3,2-4.2,2.5-8.5.1-12.7a5,5,0,0,0-6-2.8,38.2,38.2,0,0,0-4.8,1.5,9.7,9.7,0,0,1-7.3.1C30,5,28.4,4.3,26.8,3.9a5.2,5.2,0,0,0-6.1,2.3A10.9,10.9,0,0,0,19,14.6a31,31,0,0,0,5.2,11.2A3.1,3.1,0,0,0,27,27.4Z"/>
    <path d="M22,15.4l2.8-.7,2.9,7.8-2.5,1.2Z"/>
    <path d="M22,11.5l.9-4.4c2.5.4,2.7.6,2.4,2.4S24.6,12.3,22,11.5Z"/>
  </g>
</svg>
