<svg id="Layer_1" data-name="Layer 1" xmlns="http://www.w3.org/2000/svg" width="50" height="50" viewBox="0 0 50 50">
  <defs>
    <style>
      .cls-1 {
        fill: #fff;
      }
    </style>
  </defs>
  <title>vivera</title>
  <g>
    <path class="cls-1" d="M.3,9.8V25.7A21.1,21.1,0,0,0,17.7,46.5a30.2,30.2,0,0,0,6,.3H25V44.9H23.7a2.4,2.4,0,0,1-2.4-2c0-.1-.1-.2-.1-.3a1.1,1.1,0,0,0-1.3-.3,2.6,2.6,0,0,1-2.9-.1l-2.1-1.7a2.3,2.3,0,0,1-.6-3c0-.2.1-.3.1-.4a1,1,0,0,0-1-1A2.7,2.7,0,0,1,11,34.3l-.8-2.5a2.7,2.7,0,0,1,.5-2.6,1.1,1.1,0,0,0,.2-.8.8.8,0,0,0-.4-.6,2.7,2.7,0,0,1-1.2-2.2V23.2a2.6,2.6,0,0,1,.7-1.7,1,1,0,0,0,0-1.3,2.9,2.9,0,0,1-.7-1.8V16a2.6,2.6,0,0,1,1.2-2.1l.2-.3a.9.9,0,0,0-.2-1.3,2.7,2.7,0,0,1-1.2-2.2V7.7a2.7,2.7,0,0,1,5.3,0v2.4a2.7,2.7,0,0,1-1.2,2.2l-.2.2a.8.8,0,0,0,.2,1.3A2.9,2.9,0,0,1,14.6,16v2.4a3.6,3.6,0,0,1-.7,1.8.9.9,0,0,0,0,1.3,3.3,3.3,0,0,1,.7,1.7v2.4a3.6,3.6,0,0,1-.7,1.7h0a.9.9,0,0,0,.2,1.3,1.9,1.9,0,0,1,1.1,1.4l.9,2.5a2.5,2.5,0,0,1-.1,1.9,1,1,0,0,0,0,.9,1.4,1.4,0,0,0,.8.5,2,2,0,0,1,1.6.7l1.9,1.8a2.7,2.7,0,0,1,.6,1.2l.2.3a.9.9,0,0,0,1.3.2,2.3,2.3,0,0,1,1.4-.4H25V37.8H23.8l-1.5.2a4.7,4.7,0,0,0-.6-.9l-1.9-1.9a4.2,4.2,0,0,0-1.7-1,5.3,5.3,0,0,0-.2-2.2l-.8-2.5a5.7,5.7,0,0,0-1.2-1.8,4.2,4.2,0,0,0,.6-2.1V23.2a6.7,6.7,0,0,0-.7-2.4,6.1,6.1,0,0,0,.7-2.4V16a4,4,0,0,0-1.2-2.9,4.4,4.4,0,0,0,1.2-3V7.7a4.6,4.6,0,0,0-4.6-4.5H7A6.6,6.6,0,0,0,.3,9.8Zm1.9,0A4.7,4.7,0,0,1,7,5.1H8.3a3.9,3.9,0,0,0-.9,2.6v2.4a4.8,4.8,0,0,0,1.1,3A4.4,4.4,0,0,0,7.4,16v2.4a4.8,4.8,0,0,0,.7,2.4,5.1,5.1,0,0,0-.7,2.4v2.4a4.4,4.4,0,0,0,1.3,3.1,4.8,4.8,0,0,0-.3,3.7l.8,2.5a4.8,4.8,0,0,0,3,2.9A4.4,4.4,0,0,0,13.7,42l2.1,1.6a4.7,4.7,0,0,0,3.4,1l.6-.2.3.4h-2a19.3,19.3,0,0,1-15.9-19Z"/>
    <path class="cls-1" d="M43,3.2H38.1a4.6,4.6,0,0,0-4.6,4.5v2.4a4.4,4.4,0,0,0,1.2,3A4,4,0,0,0,33.5,16v2.4a6.1,6.1,0,0,0,.7,2.4,6.7,6.7,0,0,0-.7,2.4v2.4a4.2,4.2,0,0,0,.6,2.1,5.7,5.7,0,0,0-1.2,1.8L32.1,32a5.3,5.3,0,0,0-.2,2.2,4.2,4.2,0,0,0-1.7,1l-1.9,1.9a4.7,4.7,0,0,0-.6.9l-1.5-.2H25v1.9h1.2a2.3,2.3,0,0,1,1.4.4.9.9,0,0,0,1.3-.2l.2-.3a2.7,2.7,0,0,1,.6-1.2l1.9-1.8a2,2,0,0,1,1.6-.7,1.4,1.4,0,0,0,.8-.5,1,1,0,0,0,0-.9,2.5,2.5,0,0,1-.1-1.9l.9-2.5a1.9,1.9,0,0,1,1.1-1.4.9.9,0,0,0,.2-1.3h0a3.6,3.6,0,0,1-.7-1.7V23.2a3.3,3.3,0,0,1,.7-1.7.9.9,0,0,0,0-1.3,3.6,3.6,0,0,1-.7-1.8V16a2.9,2.9,0,0,1,1.2-2.2.8.8,0,0,0,.2-1.3.2.2,0,0,0-.2-.2,2.7,2.7,0,0,1-1.2-2.2V7.7a2.7,2.7,0,0,1,5.3,0v2.4a2.7,2.7,0,0,1-1.2,2.2.9.9,0,0,0-.2,1.3l.2.3A2.6,2.6,0,0,1,40.7,16v2.4a2.9,2.9,0,0,1-.7,1.8,1,1,0,0,0,0,1.3,2.6,2.6,0,0,1,.7,1.7v2.4a2.7,2.7,0,0,1-1.2,2.2.8.8,0,0,0-.4.6,1.1,1.1,0,0,0,.2.8,2.7,2.7,0,0,1,.5,2.6L39,34.3a2.7,2.7,0,0,1-2.4,1.8,1,1,0,0,0-1,1c0,.1.1.2.1.4a2.3,2.3,0,0,1-.6,3L33,42.2a2.6,2.6,0,0,1-2.9.1,1.1,1.1,0,0,0-1.3.3c0,.1-.1.2-.1.3a2.4,2.4,0,0,1-2.4,2H25v1.9h1.3a30.2,30.2,0,0,0,6-.3A21.1,21.1,0,0,0,49.7,25.7V9.8A6.6,6.6,0,0,0,43,3.2Zm4.8,22.5a19.3,19.3,0,0,1-15.9,19h-2l.3-.4.6.2a4.7,4.7,0,0,0,3.4-1L36.3,42a4.4,4.4,0,0,0,1.5-4.2,4.8,4.8,0,0,0,3-2.9l.8-2.5a4.8,4.8,0,0,0-.3-3.7,4.4,4.4,0,0,0,1.3-3.1V23.2a5.1,5.1,0,0,0-.7-2.4,4.8,4.8,0,0,0,.7-2.4V16a4.4,4.4,0,0,0-1.1-2.9,4.8,4.8,0,0,0,1.1-3V7.7a3.9,3.9,0,0,0-.9-2.6H43a4.7,4.7,0,0,1,4.8,4.7Z"/>
  </g>
</svg>
